<svg width="100%" height="168" viewBox="0 0 375 168" fill="none" xmlns="http://www.w3.org/2000/svg">
    <path fill-rule="evenodd" clip-rule="evenodd" d="M440 32.0054L218.118 0L130.479 32.0054L85.2375 16.0027L-118.025 0L-217.431 32.0054L-277.909 16.0027L-310.31 26.6876L-440.15 0L-469 11.2843V102H440V32.0054Z" fill="#211A29"/>
    <path fill-rule="evenodd" clip-rule="evenodd" d="M249 27L280.903 45L331 41.4817L249 27Z" fill="#1A1823"/>
    <path fill-rule="evenodd" clip-rule="evenodd" d="M89 0L188.081 53L239 36.388L89 0Z" fill="#1A1823"/>
    <path fill-rule="evenodd" clip-rule="evenodd" d="M-469 52.7148L-247.118 0L-159.479 52.7148L-114.237 26.3574L89.025 0L188.431 52.7148L248.909 26.3574L281.31 43.9561L411.15 0L440 18.5859V168H-469V52.7148Z" fill="#2F2439"/>
</svg>